<svg xmlns="http://www.w3.org/2000/svg" width="19.73" height="19.73" viewBox="0 0 19.73 19.73"><defs><style>.a{fill:#4d5a89;}</style></defs><path class="a" d="M64.324,527.854a9.865,9.865,0,1,0,9.865,9.865A9.876,9.876,0,0,0,64.324,527.854Zm-9.015,10.285h4.32a12.328,12.328,0,0,0,1.056,4.338H56.659A8.964,8.964,0,0,1,55.309,538.139Zm9.753-6.045v-3.04a14.329,14.329,0,0,1,2.219,3.04Zm2.635.84a11.3,11.3,0,0,1,1.015,3.978c.008.13.009.259.012.388H65.062v-4.366Zm-3.475-.84H61.907a14.365,14.365,0,0,1,2.315-3.141Zm0,.84V537.3H60.46c0-.126,0-.253.012-.379a11.28,11.28,0,0,1,1.018-3.987Zm-4.588,3.927c-.009.147-.011.293-.014.44H55.309a8.964,8.964,0,0,1,1.368-4.366h3.886A12.1,12.1,0,0,0,59.635,536.86Zm.835,1.279h3.752v4.338H61.607A11.664,11.664,0,0,1,60.47,538.139Zm3.752,5.177v3.1a18.329,18.329,0,0,1-2.186-3.1Zm.84,0h2.087a18.175,18.175,0,0,1-2.087,2.984Zm0-.84v-4.338h3.653a11.664,11.664,0,0,1-1.137,4.338Zm4.494-4.338h3.784a8.963,8.963,0,0,1-1.35,4.338H68.5A12.328,12.328,0,0,0,69.555,538.139Zm.009-.84c0-.146-.005-.293-.014-.44a12.1,12.1,0,0,0-.929-3.927h3.349a8.964,8.964,0,0,1,1.368,4.366Zm1.81-5.206H68.239a14.851,14.851,0,0,0-2.207-3.236A9.033,9.033,0,0,1,71.374,532.094Zm-8.134-3.333a14.847,14.847,0,0,0-2.295,3.333H57.274A9.021,9.021,0,0,1,63.241,528.761Zm-5.989,14.556h3.834a18.458,18.458,0,0,0,2.272,3.376A9.022,9.022,0,0,1,57.252,543.317ZM65.9,546.6a18.37,18.37,0,0,0,2.2-3.288h3.3A9.03,9.03,0,0,1,65.9,546.6Z" transform="translate(-54.459 -527.854)"/></svg>